<?xml version="1.0" encoding="UTF-8" standalone="no"?>
<!DOCTYPE svg PUBLIC "-//W3C//DTD SVG 1.1//EN" "http://www.w3.org/Graphics/SVG/1.1/DTD/svg11.dtd">
<!-- Created with Vectornator (http://vectornator.io/) -->
<svg height="100%" stroke-miterlimit="10" style="fill-rule:nonzero;clip-rule:evenodd;stroke-linecap:round;stroke-linejoin:round;" version="1.1" viewBox="0 0 841.995 595.35" width="100%" xml:space="preserve" xmlns="http://www.w3.org/2000/svg" xmlns:vectornator="http://vectornator.io" xmlns:xlink="http://www.w3.org/1999/xlink">
<defs/>
<g id="Layer-1" vectornator:layerName="Layer 1">
<path d="M195.676 319.04L186.927 294.344L194.688 294.344L200.098 312.266L205.507 294.344L212.563 294.344L203.861 319.04L195.676 319.04Z" fill="#000000" fill-rule="nonzero" opacity="1" stroke="none"/>
<path d="M226.346 319.511C224.245 319.511 222.371 319.166 220.725 318.476C219.078 317.786 217.691 316.845 216.562 315.653C215.433 314.462 214.578 313.097 213.998 311.561C213.418 310.024 213.128 308.409 213.128 306.716C213.128 304.991 213.418 303.36 213.998 301.824C214.578 300.287 215.433 298.923 216.562 297.731C217.691 296.539 219.078 295.599 220.725 294.909C222.371 294.219 224.245 293.874 226.346 293.874C228.447 293.874 230.313 294.219 231.944 294.909C233.574 295.599 234.954 296.539 236.083 297.731C237.212 298.923 238.074 300.287 238.67 301.824C239.266 303.36 239.564 304.991 239.564 306.716C239.564 308.409 239.266 310.024 238.67 311.561C238.074 313.097 237.212 314.462 236.083 315.653C234.954 316.845 233.574 317.786 231.944 318.476C230.313 319.166 228.447 319.511 226.346 319.511ZM220.842 306.716C220.842 308.001 221.085 309.13 221.571 310.103C222.057 311.075 222.708 311.827 223.524 312.36C224.339 312.894 225.28 313.16 226.346 313.16C227.381 313.16 228.314 312.886 229.145 312.337C229.976 311.788 230.627 311.028 231.097 310.056C231.567 309.083 231.803 307.97 231.803 306.716C231.803 305.43 231.567 304.301 231.097 303.329C230.627 302.357 229.976 301.604 229.145 301.071C228.314 300.538 227.381 300.271 226.346 300.271C225.28 300.271 224.339 300.538 223.524 301.071C222.708 301.604 222.057 302.357 221.571 303.329C221.085 304.301 220.842 305.43 220.842 306.716Z" fill="#000000" fill-rule="nonzero" opacity="1" stroke="none"/>
<path d="M242.929 293.8L250.455 293.8L250.712 310.244C250.712 311.279 250.901 312.016 251.277 312.455C251.653 312.894 252.186 313.113 252.876 313.113C253.347 313.113 253.825 313.043 254.311 312.901C254.797 312.76 255.228 312.596 255.605 312.408L256.592 318.052C255.652 318.491 254.57 318.836 253.347 319.087C252.124 319.338 250.979 319.463 249.913 319.463C247.78 319.463 246.126 318.891 244.95 317.747C243.774 316.602 243.186 314.979 243.186 312.878L242.929 293.8Z" fill="#000000" fill-rule="nonzero" opacity="1" stroke="none"/>
<path d="M258.803 310.15L258.803 294.344L266.33 294.344L266.33 308.503C266.33 310.009 266.628 311.161 267.223 311.961C267.819 312.76 268.666 313.16 269.763 313.16C270.453 313.16 271.112 313.043 271.739 312.807C272.366 312.572 272.978 312.188 273.574 311.655C274.17 311.122 274.703 310.432 275.173 309.585L275.173 294.344L282.699 294.344L282.699 310.667C282.699 311.42 282.817 311.945 283.052 312.243C283.287 312.541 283.703 312.721 284.299 312.784L284.299 319.04C283.609 319.166 283.005 319.26 282.488 319.322C281.97 319.385 281.508 319.416 281.1 319.416C279.783 319.416 278.732 319.142 277.948 318.593C277.164 318.044 276.678 317.268 276.49 316.265L276.349 314.76C275.22 316.39 273.817 317.59 272.139 318.358C270.461 319.126 268.588 319.511 266.518 319.511C264.009 319.511 262.096 318.711 260.779 317.111C259.462 315.512 258.803 313.192 258.803 310.15Z" fill="#000000" fill-rule="nonzero" opacity="1" stroke="none"/>
<path d="M312.334 319.04L304.808 319.04L304.808 305.163C304.808 303.533 304.502 302.349 303.891 301.612C303.279 300.875 302.472 300.507 301.468 300.507C300.778 300.507 300.073 300.695 299.351 301.071C298.63 301.447 297.979 301.965 297.399 302.623C296.819 303.282 296.372 304.034 296.059 304.881L296.059 319.04L288.532 319.04L288.532 294.344L295.306 294.344L295.306 298.484C295.933 297.512 296.717 296.681 297.658 295.991C298.599 295.301 299.681 294.776 300.904 294.415C302.127 294.054 303.46 293.874 304.902 293.874C306.501 293.874 307.795 294.164 308.783 294.744C309.771 295.324 310.523 296.085 311.041 297.026C311.558 297.966 311.903 298.978 312.076 300.06C312.248 301.142 312.334 302.2 312.334 303.235L312.334 319.04Z" fill="#000000" fill-rule="nonzero" opacity="1" stroke="none"/>
<path d="M333.267 317.723C332.577 318.005 331.817 318.287 330.986 318.57C330.155 318.852 329.284 319.079 328.375 319.252C327.465 319.424 326.572 319.511 325.694 319.511C324.439 319.511 323.287 319.299 322.236 318.875C321.186 318.452 320.355 317.754 319.743 316.782C319.132 315.81 318.826 314.524 318.826 312.925L318.804 302.434L315.544 302.434L315.52 297.653L318.755 297.605L318.718 293.732L326.311 293.826L326.409 297.508L331.262 297.484L331.311 302.482L326.313 302.482L326.352 310.338C326.352 311.153 326.556 311.741 326.964 312.102C327.371 312.462 327.889 312.643 328.516 312.643C329.049 312.643 329.621 312.549 330.233 312.36C330.844 312.172 331.37 311.968 331.809 311.749L333.267 317.723Z" fill="#000000" fill-rule="nonzero" opacity="1" stroke="none"/>
<path d="M347.708 319.511C345.607 319.511 343.741 319.173 342.11 318.499C340.48 317.825 339.092 316.908 337.947 315.747C336.803 314.587 335.933 313.246 335.337 311.725C334.741 310.205 334.443 308.613 334.443 306.951C334.443 304.568 334.968 302.396 336.019 300.436C337.069 298.476 338.582 296.892 340.558 295.685C342.534 294.478 344.917 293.874 347.708 293.874C350.499 293.874 352.875 294.47 354.835 295.661C356.795 296.853 358.292 298.413 359.327 300.342C360.362 302.27 360.879 304.364 360.879 306.622C360.879 307.061 360.856 307.492 360.809 307.915C360.762 308.339 360.722 308.707 360.691 309.021L342.44 309.021C342.534 310.118 342.84 311.043 343.357 311.796C343.874 312.549 344.541 313.121 345.356 313.513C346.171 313.905 347.034 314.101 347.943 314.101C349.072 314.101 350.131 313.834 351.118 313.301C352.106 312.768 352.788 312.047 353.165 311.137L359.562 312.925C358.935 314.211 358.049 315.348 356.904 316.335C355.76 317.323 354.411 318.099 352.859 318.664C351.307 319.228 349.59 319.511 347.708 319.511ZM342.252 304.411L352.977 304.411C352.851 303.376 352.553 302.474 352.083 301.706C351.612 300.938 350.985 300.342 350.201 299.919C349.417 299.495 348.555 299.283 347.614 299.283C346.642 299.283 345.772 299.495 345.003 299.919C344.235 300.342 343.616 300.938 343.145 301.706C342.675 302.474 342.377 303.376 342.252 304.411Z" fill="#000000" fill-rule="nonzero" opacity="1" stroke="none"/>
<path d="M376.12 319.511C374.019 319.511 372.153 319.173 370.522 318.499C368.892 317.825 367.504 316.908 366.359 315.747C365.215 314.587 364.344 313.246 363.749 311.725C363.153 310.205 362.855 308.613 362.855 306.951C362.855 304.568 363.38 302.396 364.431 300.436C365.481 298.476 366.994 296.892 368.97 295.685C370.946 294.478 373.329 293.874 376.12 293.874C378.911 293.874 381.287 294.47 383.247 295.661C385.207 296.853 386.704 298.413 387.739 300.342C388.774 302.27 389.291 304.364 389.291 306.622C389.291 307.061 389.268 307.492 389.221 307.915C389.174 308.339 389.134 308.707 389.103 309.021L370.852 309.021C370.946 310.118 371.251 311.043 371.769 311.796C372.286 312.549 372.953 313.121 373.768 313.513C374.583 313.905 375.446 314.101 376.355 314.101C377.484 314.101 378.543 313.834 379.53 313.301C380.518 312.768 381.2 312.047 381.577 311.137L387.974 312.925C387.347 314.211 386.461 315.348 385.316 316.335C384.172 317.323 382.823 318.099 381.271 318.664C379.719 319.228 378.002 319.511 376.12 319.511ZM370.663 304.411L381.388 304.411C381.263 303.376 380.965 302.474 380.495 301.706C380.024 300.938 379.397 300.342 378.613 299.919C377.829 299.495 376.967 299.283 376.026 299.283C375.054 299.283 374.184 299.495 373.415 299.919C372.647 300.342 372.028 300.938 371.557 301.706C371.087 302.474 370.789 303.376 370.663 304.411Z" fill="#000000" fill-rule="nonzero" opacity="1" stroke="none"/>
<path d="M408.389 300.789C406.57 300.789 404.924 301.079 403.45 301.659C401.976 302.239 400.91 303.094 400.251 304.223L400.251 319.04L392.725 319.04L392.725 294.344L399.64 294.344L399.64 299.331C400.487 297.668 401.584 296.367 402.933 295.426C404.281 294.485 405.692 293.999 407.166 293.968C407.511 293.968 407.77 293.968 407.942 293.968C408.115 293.968 408.264 293.984 408.389 294.015L408.389 300.789Z" fill="#000000" fill-rule="nonzero" opacity="1" stroke="none"/>
<path d="M448.044 319.04L440.517 319.04L440.517 305.163C440.517 303.533 440.211 302.349 439.6 301.612C438.988 300.875 438.181 300.507 437.177 300.507C436.488 300.507 435.782 300.695 435.061 301.071C434.339 301.447 433.689 301.965 433.109 302.623C432.528 303.282 432.081 304.034 431.768 304.881L431.768 319.04L424.242 319.04L424.242 294.344L431.015 294.344L431.015 298.484C431.642 297.512 432.426 296.681 433.367 295.991C434.308 295.301 435.39 294.776 436.613 294.415C437.836 294.054 439.169 293.874 440.611 293.874C442.211 293.874 443.504 294.164 444.492 294.744C445.48 295.324 446.233 296.085 446.75 297.026C447.267 297.966 447.612 298.978 447.785 300.06C447.957 301.142 448.044 302.2 448.044 303.235L448.044 319.04Z" fill="#000000" fill-rule="nonzero" opacity="1" stroke="none"/>
<path d="M462.626 319.134C460.995 319.134 459.506 318.813 458.157 318.17C456.809 317.527 455.656 316.633 454.7 315.489C453.743 314.344 452.998 313.019 452.465 311.514C451.932 310.009 451.666 308.393 451.666 306.669C451.666 304.85 451.948 303.172 452.512 301.635C453.077 300.099 453.869 298.743 454.888 297.567C455.907 296.391 457.114 295.481 458.51 294.838C459.905 294.195 461.45 293.874 463.143 293.874C464.994 293.874 466.624 294.274 468.035 295.073C469.447 295.873 470.576 296.979 471.422 298.39L471.422 294.344L477.961 294.344L477.961 317.347C477.961 319.855 477.357 322.019 476.15 323.838C474.942 325.657 473.265 327.06 471.117 328.048C468.968 329.036 466.483 329.53 463.661 329.53C461.027 329.53 458.761 329.099 456.864 328.236C454.966 327.374 453.312 326.159 451.901 324.591L455.946 320.498C456.856 321.533 457.985 322.356 459.333 322.968C460.682 323.579 462.124 323.885 463.661 323.885C464.884 323.885 466.013 323.666 467.048 323.227C468.082 322.788 468.906 322.082 469.517 321.11C470.129 320.138 470.434 318.883 470.434 317.347L470.434 314.948C469.682 316.296 468.592 317.331 467.165 318.052C465.738 318.774 464.225 319.134 462.626 319.134ZM465.213 313.16C465.809 313.16 466.366 313.074 466.883 312.901C467.4 312.729 467.879 312.494 468.318 312.196C468.757 311.898 469.164 311.537 469.541 311.114C469.917 310.691 470.215 310.228 470.434 309.726L470.434 304.552C470.121 303.674 469.666 302.913 469.07 302.27C468.474 301.628 467.816 301.134 467.095 300.789C466.373 300.444 465.621 300.271 464.837 300.271C464.053 300.271 463.316 300.444 462.626 300.789C461.936 301.134 461.348 301.628 460.862 302.27C460.376 302.913 459.999 303.627 459.733 304.411C459.466 305.195 459.333 306.01 459.333 306.857C459.333 307.766 459.482 308.597 459.78 309.35C460.078 310.103 460.493 310.769 461.027 311.349C461.56 311.929 462.187 312.376 462.908 312.69C463.629 313.003 464.398 313.16 465.213 313.16Z" fill="#000000" fill-rule="nonzero" opacity="1" stroke="none"/>
<path d="M412.395 301.683L419.292 301.683L419.292 319.312L412.395 319.312L412.395 301.683Z" fill="#000000" fill-rule="nonzero" opacity="1" stroke="none"/>
<path d="M412.395 293.602L419.292 293.602L419.292 299.353L412.395 299.353L412.395 293.602Z" fill="#000000" fill-rule="nonzero" opacity="1" stroke="none"/>
</g>
</svg>
