<svg id="visual" viewBox="0 0 960 540" width="960" height="540" xmlns="http://www.w3.org/2000/svg" xmlns:xlink="http://www.w3.org/1999/xlink" version="1.1"><rect x="0" y="0" width="960" height="540" fill="#EFEFEF"></rect><defs><linearGradient id="grad1_0" x1="43.8%" y1="100%" x2="100%" y2="0%"><stop offset="14.444444444444446%" stop-color="#5983fc" stop-opacity="1"></stop><stop offset="85.55555555555554%" stop-color="#5983fc" stop-opacity="1"></stop></linearGradient></defs><defs><linearGradient id="grad1_1" x1="43.8%" y1="100%" x2="100%" y2="0%"><stop offset="14.444444444444446%" stop-color="#5983fc" stop-opacity="1"></stop><stop offset="85.55555555555554%" stop-color="#efefef" stop-opacity="1"></stop></linearGradient></defs><defs><linearGradient id="grad2_0" x1="0%" y1="100%" x2="56.3%" y2="0%"><stop offset="14.444444444444446%" stop-color="#5983fc" stop-opacity="1"></stop><stop offset="85.55555555555554%" stop-color="#5983fc" stop-opacity="1"></stop></linearGradient></defs><defs><linearGradient id="grad2_1" x1="0%" y1="100%" x2="56.3%" y2="0%"><stop offset="14.444444444444446%" stop-color="#efefef" stop-opacity="1"></stop><stop offset="85.55555555555554%" stop-color="#5983fc" stop-opacity="1"></stop></linearGradient></defs><g transform="translate(960, 540)"><path d="M-270 0C-248.5 -29.2 -226.9 -58.4 -213.4 -88.4C-199.9 -118.4 -194.5 -149.2 -178.2 -178.2C-161.9 -207.2 -134.8 -234.4 -103.3 -249.4C-71.8 -264.5 -35.9 -267.2 0 -270L0 0Z" fill="#b0b7f7"></path><path d="M-135 0C-124.2 -14.6 -113.5 -29.2 -106.7 -44.2C-100 -59.2 -97.2 -74.6 -89.1 -89.1C-81 -103.6 -67.4 -117.2 -51.7 -124.7C-35.9 -132.2 -18 -133.6 0 -135L0 0Z" fill="#5983fc"></path></g><g transform="translate(0, 0)"><path d="M270 0C270.7 39.6 271.4 79.2 249.4 103.3C227.5 127.4 182.8 136 154.9 154.9C126.9 173.7 115.6 202.7 92.6 223.6C69.6 244.5 34.8 257.2 0 270L0 0Z" fill="#b0b7f7"></path><path d="M135 0C135.4 19.8 135.7 39.6 124.7 51.7C113.7 63.7 91.4 68 77.4 77.4C63.4 86.8 57.8 101.3 46.3 111.8C34.8 122.2 17.4 128.6 0 135L0 0Z" fill="#5983fc"></path></g></svg>