<?xml version="1.0" encoding="utf-8"?>
<!-- Generator: Adobe Illustrator 26.5.0, SVG Export Plug-In . SVG Version: 6.00 Build 0)  -->
<svg version="1.1" id="Warstwa_1" xmlns="http://www.w3.org/2000/svg" xmlns:xlink="http://www.w3.org/1999/xlink" x="0px" y="0px"
	 viewBox="0 0 810 102" style="enable-background:new 0 0 810 102;" xml:space="preserve">
<g id="Layer-1">
	<path d="M109.34,74.04c-5.85,0-11.07-0.96-15.65-2.88c-4.59-1.92-8.45-4.54-11.59-7.86c-3.14-3.32-5.52-7.12-7.14-11.39
		c-1.62-4.28-2.42-8.78-2.42-13.49c0-4.8,0.81-9.35,2.42-13.62c1.62-4.28,4-8.08,7.14-11.4c3.14-3.32,7.01-5.94,11.59-7.86
		c4.58-1.92,9.8-2.88,15.65-2.88c5.85,0,11.05,0.96,15.59,2.88c4.54,1.92,8.38,4.54,11.53,7.86c3.14,3.32,5.54,7.12,7.2,11.4
		c1.66,4.28,2.49,8.82,2.49,13.62c0,4.71-0.83,9.21-2.49,13.49c-1.66,4.28-4.06,8.08-7.2,11.39c-3.14,3.32-6.99,5.94-11.53,7.86
		C120.39,73.08,115.2,74.04,109.34,74.04z M94.02,38.41c0,3.58,0.68,6.72,2.03,9.43c1.35,2.71,3.17,4.8,5.44,6.28
		c2.27,1.49,4.89,2.23,7.86,2.23c2.88,0,5.48-0.76,7.79-2.29c2.31-1.53,4.13-3.65,5.44-6.35c1.31-2.71,1.97-5.81,1.97-9.3
		c0-3.58-0.66-6.72-1.97-9.43c-1.31-2.71-3.12-4.8-5.44-6.29c-2.31-1.48-4.91-2.23-7.79-2.23c-2.97,0-5.59,0.74-7.86,2.23
		c-2.27,1.48-4.09,3.58-5.44,6.29C94.69,31.68,94.02,34.83,94.02,38.41z"/>
	<path d="M155.52,2.65h20.96l0.72,45.79c0,2.88,0.53,4.93,1.57,6.16c1.05,1.22,2.53,1.83,4.45,1.83c1.31,0,2.64-0.19,4-0.59
		c1.35-0.39,2.55-0.85,3.6-1.37l2.75,15.72c-2.62,1.22-5.63,2.18-9.04,2.88c-3.41,0.7-6.59,1.05-9.56,1.05
		c-5.94,0-10.55-1.59-13.82-4.78c-3.27-3.19-4.91-7.71-4.91-13.56L155.52,2.65z"/>
	<path d="M199.73,46.86V2.84h20.96v39.43c0,4.19,0.83,7.4,2.49,9.63c1.66,2.22,4.02,3.34,7.07,3.34c1.92,0,3.76-0.33,5.5-0.98
		c1.75-0.65,3.45-1.72,5.11-3.21c1.66-1.48,3.14-3.41,4.45-5.76V2.84h20.96V48.3c0,2.1,0.33,3.56,0.98,4.39
		c0.65,0.83,1.81,1.33,3.47,1.51v17.42c-1.92,0.35-3.6,0.61-5.04,0.79c-1.44,0.18-2.73,0.26-3.87,0.26c-3.67,0-6.59-0.76-8.78-2.29
		c-2.18-1.53-3.54-3.69-4.06-6.48l-0.39-4.19c-3.14,4.54-7.05,7.88-11.72,10.02c-4.67,2.14-9.89,3.21-15.65,3.21
		c-6.99,0-12.31-2.23-15.98-6.68C201.56,61.79,199.73,55.33,199.73,46.86z"/>
	<path d="M348.79,72.92h-20.96V34.28c0-4.54-0.85-7.84-2.55-9.89c-1.7-2.05-3.95-3.08-6.75-3.08c-1.92,0-3.88,0.52-5.89,1.57
		c-2.01,1.05-3.82,2.49-5.44,4.32c-1.62,1.84-2.86,3.93-3.73,6.29v39.43h-20.96V4.15h18.86v11.53c1.75-2.71,3.93-5.02,6.55-6.94
		c2.62-1.92,5.63-3.38,9.04-4.39c3.41-1.01,7.12-1.51,11.13-1.51c4.45,0,8.06,0.81,10.81,2.42c2.75,1.62,4.85,3.73,6.29,6.35
		c1.44,2.62,2.4,5.44,2.88,8.45c0.48,3.01,0.72,5.96,0.72,8.84V72.92z"/>
	<path d="M447.29,73.58c-5.85,0-11.05-0.94-15.59-2.82c-4.54-1.88-8.4-4.43-11.59-7.66c-3.19-3.23-5.61-6.96-7.27-11.2
		c-1.66-4.23-2.49-8.67-2.49-13.29c0-6.64,1.46-12.68,4.39-18.14c2.92-5.46,7.14-9.87,12.64-13.23c5.5-3.36,12.14-5.04,19.91-5.04
		c7.77,0,14.39,1.66,19.85,4.98c5.46,3.32,9.63,7.66,12.51,13.03c2.88,5.37,4.32,11.2,4.32,17.49c0,1.22-0.06,2.42-0.19,3.6
		c-0.13,1.18-0.24,2.21-0.33,3.08h-50.82c0.26,3.05,1.11,5.63,2.55,7.73c1.44,2.1,3.3,3.69,5.57,4.78s4.67,1.64,7.2,1.64
		c3.14,0,6.09-0.74,8.84-2.23c2.75-1.48,4.65-3.49,5.7-6.03l17.81,4.98c-1.75,3.58-4.21,6.75-7.4,9.5
		c-3.19,2.75-6.94,4.91-11.26,6.49C457.32,72.79,452.53,73.58,447.29,73.58z M432.1,31.53h29.87c-0.35-2.88-1.18-5.39-2.49-7.53
		c-1.31-2.14-3.06-3.8-5.24-4.98c-2.18-1.18-4.58-1.77-7.2-1.77c-2.71,0-5.13,0.59-7.27,1.77c-2.14,1.18-3.86,2.84-5.17,4.98
		C433.28,26.14,432.45,28.65,432.1,31.53z"/>
	<path d="M526.41,73.58c-5.85,0-11.05-0.94-15.59-2.82c-4.54-1.88-8.4-4.43-11.59-7.66c-3.19-3.23-5.61-6.96-7.27-11.2
		c-1.66-4.23-2.49-8.67-2.49-13.29c0-6.64,1.46-12.68,4.39-18.14C496.78,15,501,10.59,506.5,7.23c5.5-3.36,12.14-5.04,19.91-5.04
		c7.77,0,14.39,1.66,19.85,4.98c5.46,3.32,9.63,7.66,12.51,13.03c2.88,5.37,4.32,11.2,4.32,17.49c0,1.22-0.06,2.42-0.19,3.6
		c-0.13,1.18-0.24,2.21-0.33,3.08h-50.82c0.26,3.05,1.11,5.63,2.55,7.73c1.44,2.1,3.3,3.69,5.57,4.78c2.27,1.09,4.67,1.64,7.2,1.64
		c3.14,0,6.09-0.74,8.84-2.23c2.75-1.48,4.65-3.49,5.7-6.03l17.81,4.98c-1.75,3.58-4.21,6.75-7.4,9.5
		c-3.19,2.75-6.94,4.91-11.26,6.49C536.43,72.79,531.65,73.58,526.41,73.58z M511.21,31.53h29.87c-0.35-2.88-1.18-5.39-2.49-7.53
		c-1.31-2.14-3.06-3.8-5.24-4.98c-2.18-1.18-4.58-1.77-7.2-1.77c-2.71,0-5.13,0.59-7.27,1.77c-2.14,1.18-3.86,2.84-5.17,4.98
		C512.4,26.13,511.57,28.65,511.21,31.53z"/>
	<path d="M616.27,21.97c-5.07,0-9.65,0.81-13.75,2.42c-4.1,1.62-7.07,4-8.91,7.14v41.26h-20.96V4.02h19.26v13.89
		c2.36-4.63,5.41-8.25,9.17-10.87c3.75-2.62,7.68-3.97,11.79-4.06c0.96,0,1.68,0,2.16,0c0.48,0,0.9,0.04,1.24,0.13V21.97z"/>
	<path d="M726.69,72.92h-20.96V34.28c0-4.54-0.85-7.84-2.55-9.89c-1.7-2.05-3.95-3.08-6.75-3.08c-1.92,0-3.88,0.52-5.89,1.57
		c-2.01,1.05-3.82,2.49-5.44,4.32c-1.62,1.84-2.86,3.93-3.73,6.29v39.43h-20.96V4.15h18.86v11.53c1.75-2.71,3.93-5.02,6.55-6.94
		s5.63-3.38,9.04-4.39c3.41-1.01,7.12-1.51,11.13-1.51c4.46,0,8.06,0.81,10.81,2.42c2.75,1.62,4.85,3.73,6.29,6.35
		c1.44,2.62,2.4,5.44,2.88,8.45c0.48,3.01,0.72,5.96,0.72,8.84V72.92z"/>
	<path d="M767.3,72.99c-4.54,0-8.69-0.89-12.44-2.68c-3.75-1.79-6.96-4.28-9.63-7.47c-2.66-3.19-4.74-6.88-6.22-11.07
		c-1.48-4.19-2.22-8.69-2.22-13.49c0-5.07,0.79-9.74,2.36-14.02c1.57-4.28,3.78-8.05,6.62-11.33c2.84-3.27,6.2-5.81,10.09-7.6
		c3.88-1.79,8.19-2.68,12.9-2.68c5.15,0,9.69,1.11,13.62,3.34c3.93,2.23,7.08,5.31,9.43,9.24V3.96H810v64.05
		c0,6.98-1.68,13.01-5.04,18.08c-3.36,5.07-8.03,8.97-14.02,11.72c-5.98,2.75-12.9,4.13-20.76,4.13c-7.33,0-13.64-1.2-18.93-3.6
		c-5.29-2.4-9.89-5.78-13.82-10.15l11.26-11.4c2.53,2.88,5.68,5.17,9.43,6.88c3.76,1.7,7.77,2.55,12.05,2.55
		c3.41,0,6.55-0.61,9.43-1.83c2.88-1.22,5.17-3.19,6.88-5.9c1.7-2.71,2.55-6.2,2.55-10.48v-6.68c-2.09,3.75-5.13,6.64-9.1,8.64
		C775.96,71.99,771.75,72.99,767.3,72.99z M774.5,56.35c1.66,0,3.21-0.24,4.65-0.72c1.44-0.48,2.77-1.13,4-1.96
		c1.22-0.83,2.36-1.84,3.41-3.01c1.05-1.18,1.88-2.47,2.49-3.87V32.38c-0.87-2.44-2.14-4.56-3.8-6.35c-1.66-1.79-3.49-3.16-5.5-4.12
		c-2.01-0.96-4.1-1.44-6.29-1.44c-2.18,0-4.24,0.48-6.16,1.44c-1.92,0.96-3.56,2.34-4.91,4.12c-1.35,1.79-2.4,3.78-3.14,5.96
		c-0.74,2.18-1.11,4.45-1.11,6.81c0,2.53,0.41,4.85,1.24,6.94c0.83,2.1,1.99,3.95,3.47,5.57c1.48,1.62,3.23,2.86,5.24,3.73
		C770.09,55.92,772.23,56.35,774.5,56.35z"/>
	<g>
		<path d="M627.42,31.19h19.21v41.73h-19.21V31.19z"/>
		<path d="M627.42,2.84h19.21v16.01h-19.21V2.84z"/>
	</g>
	<g>
		<path d="M401.44,70.03c-1.55,0.68-3.3,1.32-5.25,1.94c-1.95,0.61-3.98,1.1-6.08,1.48c-2.1,0.37-4.22,0.56-6.35,0.56
			c-2.95,0-5.64-0.45-8.07-1.35c-2.43-0.9-4.38-2.39-5.86-4.47c-1.47-2.07-2.21-4.82-2.21-8.23V32.54h-7.4V20.11h7.4V3h17.68v17.11
			h11.71v12.43h-11.71v21.61c0.07,1.79,0.55,3.07,1.44,3.83c0.88,0.76,2.1,1.14,3.65,1.14c1.33,0,2.67-0.22,4.03-0.66
			c1.36-0.44,2.6-0.83,3.7-1.17L401.44,70.03z"/>
	</g>
</g>
<g>
	<polygon points="36.36,52.81 41.73,71.63 46.82,71.63 58.81,37.59 41.5,35.76 	"/>
	<polygon points="21.32,3 -0.25,3 5.03,17.9 26.51,20.17 	"/>
	<polygon points="51.39,3 45.6,22.18 63.57,24.08 71,3 	"/>
	<polygon points="41.73,71.63 24.44,71.63 10.46,32.43 31.28,34.62 	"/>
</g>
</svg>